Patient4_TMGait_0pt7_02_left_39_EMG.mot
version=1
nRows=13
nColumns=33
inDegrees=no
endheader
time	1LAddLong	2LGlutMax	3LGlutMed	4LIliopsoas	5LSemiMemb	6LBicFemLong	7LRecFem	8LVastMed	9LVastLat	10LGasMed	11LTibAnt	12lTibPost	13LPeroneusLong	14LSol	15LExtDigLong	16LFlexDigLong	17RAddLong	18RGlutMax	19RGlutMed	20RIliopsoas	21RSemiMemb	22RBicFemLong	23RRecFem	24RVastMed	25RVastLat	26RGasMed	27RTibAnt	28RTibPost	29RPeroneusLong	30RSol	31RExtDigLong	32RFlexDigLong
45.873	0.008545	0.1532	-0.064545	-0.003052	-0.001831	-0.012665	-0.070648	0.017548	0.003357	-0.03067	0.10437	0.007477	0.056305	-0.032654	0.062103	-0.006256	0.049744	-0.011749	-0.098267	-0.039063	0.15167	-0.11566	0.017395	0.13733	0.10284	0.011139	0.37003	0.012512	0.14557	-0.068054	-0.001068	0.002747
45.874	0.019989	0.12589	-0.078125	-0.004425	-0.010223	-0.005188	-0.062714	0.003967	-0.00061	-0.046082	0.045624	0.003204	0.058899	-0.053253	0.024261	-0.016174	0.027313	0.096588	-0.14389	-0.040131	0.085602	-0.11627	-0.054779	0.14526	0.14099	0.013123	-0.11337	0.003052	0.27435	-0.03067	0.000763	0.003052
45.875	0.001373	0.11902	-0.089111	-0.000458	-0.009003	0.011902	-0.049438	0.000916	0.010681	-0.045471	0.045013	0.002594	0.087585	-0.065002	0.11704	0.005035	-0.025024	0.20416	-0.26001	-0.099487	-0.16464	-0.057983	-0.096436	0.22415	0.15625	0.027924	-0.39749	0.009613	0.42923	-0.22186	-0.000458	0.00061
45.876	0.006561	0.082855	-0.046234	0.005493	-0.019989	-0.01236	-0.049286	-0.000458	0.009766	-0.011292	0.072937	0.019073	0.10986	-0.09079	0.09903	0.016327	-0.024414	0.14221	-0.26886	-0.10971	-0.18356	-0.017548	-0.035706	0.17731	0.099487	0.02533	-1.0931	0.007324	0.39475	-0.49683	-0.000916	-0.014343
45.877	0.006866	0.076294	0.007172	0.009308	-0.026093	0.013733	-0.060425	0.006561	0.015869	-0.010071	0.075684	0	0.11093	-0.10513	-0.14069	0.00473	0.022583	0.10605	-0.30518	-0.042725	-0.15808	0.056458	-0.014191	0.037384	0.06546	-0.030212	-0.79407	0.003967	0.15152	-0.67352	0.000153	-0.010223
45.878	0.016785	0.071869	-0.027313	0.001831	-0.041809	0.010223	-0.061798	0.007477	0.023956	-0.015259	-0.016022	0.000305	0.10971	-0.080566	0.10407	0.00412	-0.010071	0.2066	-0.67276	-0.025482	-0.088043	0.14908	0.003357	0.063171	0.049133	-0.091553	-0.29511	0.004272	-0.010529	-0.32776	-0.000153	-0.009918
45.879	0.006104	0.067139	0.001526	0.021057	-0.079651	-0.023346	-0.083618	0.005646	0.017548	-0.034332	-0.073547	-0.004425	0.13214	-0.00824	-0.089111	-0.00412	-0.010681	0.18356	-0.59403	0.029144	0.18051	0.16953	0.0383	-0.000763	0.042877	-0.085754	-0.044556	0.003204	-0.063477	-0.18677	-0.001068	-0.014038
45.88	0.00351	0.062866	0.044861	0.035553	-0.055847	-0.087433	-0.089569	0.004578	0.021057	-0.022278	0.001984	0.00351	0.12543	0.000153	0.13641	-0.000305	-0.009918	0.19241	-0.16464	0.002136	0.18158	0.14999	0.068665	-0.047455	0.041504	-0.091095	0.02121	0.002747	-0.046234	-0.25375	0.000153	-0.006866
45.881	-0.004272	0.055389	0.000153	0.024719	0.017548	-0.10193	-0.068512	-0.001831	0.011597	-0.040588	0.04837	-0.006561	0.094147	0.005493	-0.14725	0.000916	-0.01236	0.086212	-0.05661	-0.022125	-0.23621	0.12924	0.068665	-0.097351	0.019836	-0.024567	-0.002289	0.00824	-0.1796	-0.77103	-0.001526	-0.021515
45.882	0.002136	0.042572	-0.019531	0.003357	0.044556	-0.096283	-0.08667	0.001221	0.01297	-0.061493	0.10788	-0.001831	0.074158	0.011749	-0.000763	0.007629	-0.018616	-0.011902	-0.065918	-0.029755	-0.44952	0.065918	0.019073	-0.085297	0.022583	0.010681	-0.098572	0.001373	-0.039978	-1.563	-0.00412	-0.020752
45.883	0.007782	0.060883	-0.00946	0.007935	0.014191	-0.050812	-0.098572	-0.01297	0.023041	-0.063019	0.071259	0.001984	0.084839	0.057526	-0.04303	-0.005798	-0.039825	-0.068512	-0.69015	0.011292	-0.19836	-0.060883	0.02182	-0.012512	0.009766	-0.008087	0.11185	-0.079193	0.059967	-0.36728	0.000458	-0.026855
45.884	0.007477	0.030365	0.020752	0.004425	-0.011139	-0.025177	-0.095673	-0.002747	0.018616	-0.070648	-0.037537	-0.005188	0.11688	0.00412	-0.30746	0.006409	-0.033875	-0.20432	-0.77682	0.024719	0.19959	-0.15289	0.027618	0.053864	0.015564	0.042267	0.13855	0.071716	0.056305	1.599	-0.001678	-0.00885
45.885	0.006409	0.004425	0.003662	0.020142	-0.029602	0.000305	-0.095367	-0.009003	0.008545	-0.038452	-0.12497	0	0.13153	-0.080872	0.02243	-0.009155	-0.004883	-0.27161	-0.25574	-0.004425	0.25604	-0.048218	0.01297	0.012817	0.003967	0.031433	0.050964	0.065613	0.048676	2.7199	-0.005188	0.002899
